<svg id="ECA_logo" xmlns="http://www.w3.org/2000/svg" xmlns:xlink="http://www.w3.org/1999/xlink" width="75.973" height="32.993" viewBox="0 0 75.973 32.993">
  <defs>
    <clipPath id="clip-path">
      <path id="Tracé_1681" data-name="Tracé 1681" d="M50.015,102.053l-13.729,16.72q3.9-1.217,8-2.146l7.12-8.881.655,7.453c1.912-.3,3.918-.467,5.87-.673l-1.458-12.488ZM17.294,114.542a10.3,10.3,0,0,0,1.438,6H4.553l1.824-5.209H11.6l3.761-4.613H7.989L9.4,106.662h9.241l3.764-4.621H5.064l-8.08,23.126H20.5a90.591,90.591,0,0,1,9.365-4.159,13.554,13.554,0,0,1-3.335-.479c-2.527-.876-3.7-2.921-3.367-6.317a9.137,9.137,0,0,1,9.426-7.993,9.641,9.641,0,0,1,6.83,2.751l3.455-4.317a13.693,13.693,0,0,0-9.377-3.181c-10.41,0-15.858,6.35-16.212,13.069" transform="translate(3.016 -101.473)" fill="#fff"/>
    </clipPath>
  </defs>
  <path id="Tracé_1678" data-name="Tracé 1678" d="M99.964,145.987h-6.2l-.4-4.621H81.984c-3.709,4.139-6.79,5.254-11.913,5.254a16.387,16.387,0,0,1-4.873-.633,101.863,101.863,0,0,1,33.661-9.482Z" transform="translate(-34.574 -122.292)" fill="#fff"/>
  <g id="Groupe_1556" data-name="Groupe 1556" transform="translate(3.218)">
    <path id="Tracé_1679" data-name="Tracé 1679" d="M50.015,102.053l-13.729,16.72q3.9-1.217,8-2.146l7.12-8.881.655,7.453c1.912-.3,3.918-.467,5.87-.673l-1.458-12.488ZM17.294,114.542a10.3,10.3,0,0,0,1.438,6H4.553l1.824-5.209H11.6l3.761-4.613H7.989L9.4,106.662h9.241l3.764-4.621H5.064l-8.08,23.126H20.5a90.591,90.591,0,0,1,9.365-4.159,13.554,13.554,0,0,1-3.335-.479c-2.527-.876-3.7-2.921-3.367-6.317a9.137,9.137,0,0,1,9.426-7.993,9.641,9.641,0,0,1,6.83,2.751l3.455-4.317a13.693,13.693,0,0,0-9.377-3.181c-10.41,0-15.858,6.35-16.212,13.069" transform="translate(3.016 -101.473)" fill="#fff"/>
    <g id="Groupe_1555" data-name="Groupe 1555" transform="translate(0)" clip-path="url(#clip-path)">
      <path id="Tracé_1680" data-name="Tracé 1680" d="M-3.016,101.473H57.93v23.7H-3.016Z" transform="translate(3.016 -101.473)" fill="#fff"/>
    </g>
  </g>
  <path id="Tracé_1682" data-name="Tracé 1682" d="M-9.748,179.3h-1.278l.808-2.312h1.282l-.145.4h-.8l-.177.507h.747l-.141.4H-10.2l-.209.6h.8Z" transform="translate(11.026 -146.35)" fill="#fff"/>
  <path id="Tracé_1683" data-name="Tracé 1683" d="M-1.826,176.948l-.526,1.5a1.3,1.3,0,0,1-.43.633,1.091,1.091,0,0,1-.683.211.636.636,0,0,1-.5-.179.574.574,0,0,1-.121-.487,1.011,1.011,0,0,1,.052-.215l.51-1.461h.478L-3.55,178.4a1.029,1.029,0,0,0-.056.2c-.024.187.06.28.257.28a.448.448,0,0,0,.322-.122.861.861,0,0,0,.217-.361l.506-1.448Zm1.35,1.424-.309.888h-.47l.8-2.312H.11a.734.734,0,0,1,.534.162.523.523,0,0,1,.121.471.816.816,0,0,1-.193.43.918.918,0,0,1-.4.268l.269.982h-.53l-.2-.888Zm.141-.406h.121a.591.591,0,0,0,.333-.089.408.408,0,0,0,.153-.276.221.221,0,0,0-.048-.195A.311.311,0,0,0,0,177.342H-.119Zm4.222-.191a2.205,2.205,0,0,1-.269.811,1.456,1.456,0,0,1-.5.536,1.2,1.2,0,0,1-.643.179.728.728,0,0,1-.595-.231.817.817,0,0,1-.133-.649,2.084,2.084,0,0,1,.261-.767,1.512,1.512,0,0,1,.5-.54,1.2,1.2,0,0,1,.659-.191.726.726,0,0,1,.587.227.817.817,0,0,1,.129.637m-.8-.454a.594.594,0,0,0-.37.142,1.183,1.183,0,0,0-.3.406,1.813,1.813,0,0,0-.169.548.476.476,0,0,0,.056.353.319.319,0,0,0,.277.118.572.572,0,0,0,.362-.138,1.035,1.035,0,0,0,.3-.406,1.732,1.732,0,0,0,.169-.564.482.482,0,0,0-.052-.345.308.308,0,0,0-.269-.122m3.62.3a.851.851,0,0,1-.35.6,1.247,1.247,0,0,1-.763.219H5.458l-.286.811H4.694l.8-2.312h.526a.752.752,0,0,1,.55.17.561.561,0,0,1,.125.5m-1.1.406h.088a.588.588,0,0,0,.366-.11.453.453,0,0,0,.169-.292c.024-.191-.064-.284-.265-.284H5.836Z" transform="translate(6.881 -146.311)" fill="#fff"/>
  <path id="Tracé_1684" data-name="Tracé 1684" d="M25.764,179.3H24.486l.808-2.312h1.282l-.141.4h-.8l-.177.507H26.2l-.141.4h-.747l-.209.6h.8Z" transform="translate(-10.218 -146.35)" fill="#fff"/>
  <path id="Tracé_1685" data-name="Tracé 1685" d="M31.783,178.706h-.739l-.346.552h-.5l1.523-2.321h.587l-.1,2.321h-.466Zm.036-.406.036-.556a2.775,2.775,0,0,1,.04-.406v-.057q-.1.186-.229.406l-.378.609Zm3.367.957h-.534l-.313-1.749v.049c-.064.227-.125.43-.189.613l-.378,1.087h-.45l.8-2.312h.558l.293,1.7c.024-.081.06-.195.112-.345s.2-.6.47-1.359h.43Zm4.656-1.939a.659.659,0,0,0-.4.126,1.067,1.067,0,0,0-.321.377,1.553,1.553,0,0,0-.173.536.557.557,0,0,0,.052.406.364.364,0,0,0,.321.126,1.555,1.555,0,0,0,.546-.122l-.056.406a1.852,1.852,0,0,1-.643.122.7.7,0,0,1-.587-.235.859.859,0,0,1-.125-.669,1.941,1.941,0,0,1,.269-.763,1.52,1.52,0,0,1,.51-.527,1.192,1.192,0,0,1,.651-.183,1.418,1.418,0,0,1,.341.036,1.07,1.07,0,0,1,.305.13l-.237.406a1.234,1.234,0,0,0-.257-.122.728.728,0,0,0-.209-.028" transform="translate(-13.635 -146.309)" fill="#fff"/>
  <path id="Tracé_1686" data-name="Tracé 1686" d="M57.167,179.3l.808-2.312h.478l-.667,1.907h.8l-.141.406Z" transform="translate(-29.77 -146.35)" fill="#fff"/>
  <path id="Tracé_1687" data-name="Tracé 1687" d="M66.194,176.921l-.526,1.5a1.289,1.289,0,0,1-.43.633,1.108,1.108,0,0,1-.687.211.627.627,0,0,1-.494-.179.559.559,0,0,1-.1-.487,1.282,1.282,0,0,1,.056-.215l.51-1.461H65l-.506,1.452a1.029,1.029,0,0,0-.056.2c-.024.187.06.28.257.28a.447.447,0,0,0,.321-.122.858.858,0,0,0,.213-.361l.506-1.448Zm2.037,0a.859.859,0,0,1,.522.13.407.407,0,0,1,.129.385.68.68,0,0,1-.185.406.8.8,0,0,1-.4.207.4.4,0,0,1,.225.15.407.407,0,0,1,.056.288.812.812,0,0,1-.317.556,1.152,1.152,0,0,1-.691.2h-.8l.8-2.312Zm-.856,1.907h.281a.467.467,0,0,0,.3-.093.369.369,0,0,0,.141-.252c.024-.17-.06-.26-.249-.26h-.257Zm.346-.99h.249a.506.506,0,0,0,.293-.077.325.325,0,0,0,.129-.223c.02-.142-.06-.215-.237-.215h-.237Zm4.834.844h-.739l-.35.552h-.5l1.523-2.321h.583l-.092,2.321h-.466Zm.032-.406.036-.556a2.784,2.784,0,0,1,.044-.406v-.057a4.326,4.326,0,0,1-.225.406l-.378.609Zm2.993.272a.743.743,0,0,1-.305.523,1.057,1.057,0,0,1-.655.191.864.864,0,0,1-.534-.142l.06-.43a1.029,1.029,0,0,0,.534.17.543.543,0,0,0,.285-.069.252.252,0,0,0,.125-.183.412.412,0,0,0,0-.122.294.294,0,0,0-.048-.093,1.011,1.011,0,0,0-.173-.162.868.868,0,0,1-.257-.308.621.621,0,0,1-.044-.333.812.812,0,0,1,.149-.365.826.826,0,0,1,.313-.247.965.965,0,0,1,.422-.089,1.168,1.168,0,0,1,.6.154l-.225.369a.962.962,0,0,0-.434-.118.346.346,0,0,0-.221.073.26.26,0,0,0-.108.187.241.241,0,0,0,.028.17.689.689,0,0,0,.2.191.73.73,0,0,1,.241.276.619.619,0,0,1,.044.357m2.527,0a.742.742,0,0,1-.305.523,1.058,1.058,0,0,1-.655.191.864.864,0,0,1-.534-.142l.06-.43a1.032,1.032,0,0,0,.534.17.542.542,0,0,0,.285-.069.251.251,0,0,0,.117-.195.411.411,0,0,0,0-.122.286.286,0,0,0-.048-.093,1,1,0,0,0-.173-.162.868.868,0,0,1-.257-.308.621.621,0,0,1-.044-.333.822.822,0,0,1,.149-.365.832.832,0,0,1,.313-.247.953.953,0,0,1,.422-.089,1.167,1.167,0,0,1,.6.154l-.225.369a.962.962,0,0,0-.434-.118.347.347,0,0,0-.221.073.261.261,0,0,0-.108.187.245.245,0,0,0,.028.17.689.689,0,0,0,.2.191.729.729,0,0,1,.241.276.616.616,0,0,1,.044.357m3.407-.787a2.139,2.139,0,0,1-.265.811,1.456,1.456,0,0,1-.5.536,1.2,1.2,0,0,1-.647.179.722.722,0,0,1-.591-.231.817.817,0,0,1-.137-.649,2.088,2.088,0,0,1,.265-.767,1.508,1.508,0,0,1,.5-.54,1.2,1.2,0,0,1,.655-.191.724.724,0,0,1,.587.227.789.789,0,0,1,.129.637m-.8-.454a.586.586,0,0,0-.366.142,1.218,1.218,0,0,0-.305.406,1.687,1.687,0,0,0-.165.548.474.474,0,0,0,.052.353.332.332,0,0,0,.277.118.573.573,0,0,0,.366-.138,1.039,1.039,0,0,0,.3-.406,1.854,1.854,0,0,0,.165-.564.464.464,0,0,0-.052-.345.3.3,0,0,0-.269-.122m3.218,0a.665.665,0,0,0-.4.126,1.027,1.027,0,0,0-.317.377,1.557,1.557,0,0,0-.177.536.557.557,0,0,0,.052.406.371.371,0,0,0,.325.126,1.594,1.594,0,0,0,.546-.122l-.06.406a1.834,1.834,0,0,1-.643.122.692.692,0,0,1-.583-.235.843.843,0,0,1-.129-.669,2.013,2.013,0,0,1,.269-.763,1.56,1.56,0,0,1,.51-.527,1.193,1.193,0,0,1,.651-.183,1.423,1.423,0,0,1,.342.037,1.1,1.1,0,0,1,.309.13l-.241.406a1.142,1.142,0,0,0-.257-.122.727.727,0,0,0-.209-.028" transform="translate(-33.818 -146.285)" fill="#fff"/>
  <path id="Tracé_1688" data-name="Tracé 1688" d="M116.66,179.3l.812-2.312h.478l-.812,2.313Z" transform="translate(-65.361 -146.35)" fill="#fff"/>
  <path id="Tracé_1689" data-name="Tracé 1689" d="M122.2,178.736h-.739l-.346.552h-.5l1.527-2.321h.583l-.1,2.321h-.466Zm.036-.406.036-.556a3.47,3.47,0,0,1,.04-.406v-.057c-.064.126-.141.26-.225.406l-.382.609Z" transform="translate(-67.724 -146.338)" fill="#fff"/>
  <path id="Tracé_1690" data-name="Tracé 1690" d="M129.689,179.3h-.478l.667-1.9h-.55l.141-.41h1.583l-.145.41h-.554l-.663,1.9Zm1.724,0,.812-2.312h.478l-.812,2.313Z" transform="translate(-72.869 -146.35)" fill="#fff"/>
  <path id="Tracé_1691" data-name="Tracé 1691" d="M142.011,143.957a2.213,2.213,0,0,1-.269.811,1.459,1.459,0,0,1-.5.536,1.2,1.2,0,0,1-.643.179.729.729,0,0,1-.595-.231.82.82,0,0,1-.133-.649,2.1,2.1,0,0,1,.261-.767,1.512,1.512,0,0,1,.5-.54,1.2,1.2,0,0,1,.659-.191.711.711,0,0,1,.583.227.818.818,0,0,1,.133.637m-.8-.454a.6.6,0,0,0-.37.142,1.258,1.258,0,0,0-.305.406,1.932,1.932,0,0,0-.165.548.476.476,0,0,0,.056.353.32.32,0,0,0,.277.118.572.572,0,0,0,.362-.138,1.039,1.039,0,0,0,.3-.406,1.752,1.752,0,0,0,.169-.564.485.485,0,0,0-.052-.345.308.308,0,0,0-.269-.122m3.479,1.935h-.538l-.309-1.749v.049c-.064.227-.129.43-.189.613l-.378,1.087h-.43l.8-2.312h.558l.293,1.7c.024-.081.06-.195.108-.345l.474-1.359h.43Zm6.011-25.386a5.2,5.2,0,1,0,4.476,5.8,5.22,5.22,0,0,0-4.476-5.8m3.616,5.567-1.45-.154-.7-1.761.9-1.241,1.045.3a4.849,4.849,0,0,1,.659,2Zm-3.19,3.935-1.683-.215-.732-1.03,1-1.323,1.88.239.607,1.456Zm-4.126-1.7-.759-1.623.8-1.327,1.776.227.736,1.716-1,1.335Zm3.476-6.9,1.675.227.759,1.128-.892,1.217-1.82-.231-.767-1.534Zm-2.7.783,1.455.077.767,1.538-1.165,1.579-1.772-.227-.478-1.562Zm2.857-1.29a4.736,4.736,0,0,1,1.575.491l-.044.049-1.691-.231-.333-.345a2.273,2.273,0,0,1,.494.036m-3.214.767.165.45-1.205,1.416-.595.032a4.79,4.79,0,0,1,1.635-1.9m-.884,7.161a4.8,4.8,0,0,1-1.129-2.272l.643.183.763,1.623-.273.467m2.917,1.55a4.243,4.243,0,0,1-.514-.093l.454-.316,1.683.215.064.1a4.687,4.687,0,0,1-1.687.093m3.905-1.335h-.98l-.611-1.473,1.069-1.489,1.454.154.221.949a4.768,4.768,0,0,1-1.153,1.846" transform="translate(-79.237 -112.493)" fill="#fff"/>
</svg>
