<?xml version="1.0" encoding="UTF-8" standalone="no"?>
<svg
   xmlns:dc="http://purl.org/dc/elements/1.1/"
   xmlns:cc="http://creativecommons.org/ns#"
   xmlns:rdf="http://www.w3.org/1999/02/22-rdf-syntax-ns#"
   xmlns:svg="http://www.w3.org/2000/svg"
   xmlns="http://www.w3.org/2000/svg"
   xmlns:sodipodi="http://sodipodi.sourceforge.net/DTD/sodipodi-0.dtd"
   xmlns:inkscape="http://www.inkscape.org/namespaces/inkscape"
   inkscape:version="1.0 (4035a4f, 2020-05-01)"
   sodipodi:docname="Logo Ligue Football Professionnel 2019.svg"
   viewBox="0 0 555.69635 799.99998"
   height="800"
   width="555.69635"
   xml:space="preserve"
   id="svg833"
   version="1.1"><metadata
     id="metadata839"><rdf:RDF><cc:Work
         rdf:about=""><dc:format>image/svg+xml</dc:format><dc:type
           rdf:resource="http://purl.org/dc/dcmitype/StillImage" /><dc:title></dc:title></cc:Work></rdf:RDF></metadata><defs
     id="defs837" /><sodipodi:namedview
     inkscape:current-layer="g841"
     inkscape:window-maximized="0"
     inkscape:window-y="0"
     inkscape:window-x="0"
     inkscape:cy="538.24759"
     inkscape:cx="116.52997"
     inkscape:zoom="0.51318602"
     showgrid="false"
     id="namedview835"
     inkscape:window-height="900"
     inkscape:window-width="1440"
     inkscape:pageshadow="2"
     inkscape:pageopacity="0"
     guidetolerance="10"
     gridtolerance="10"
     objecttolerance="10"
     borderopacity="1"
     bordercolor="#666666"
     pagecolor="#ffffff" /><g
     transform="matrix(1.3333333,0,0,-1.3333333,-356.26586,201.13783)"
     inkscape:label="Logo Ligue Football Professionnel 2019"
     inkscape:groupmode="layer"
     id="g841"><path
       id="path859"
       style="fill:#ffffff;fill-opacity:1;fill-rule:nonzero;stroke:none;stroke-width:6.85451"
       d="M 267.1994,-449.14663 H 683.97166 V 150.85338 H 267.1994 Z" /><path
       id="path861"
       style="fill:#0c1e42;fill-opacity:1;fill-rule:nonzero;stroke:none;stroke-width:6.85451"
       d="M 279.41413,-436.93211 H 671.7476 v 575.5613 H 279.41413 Z m 380.10915,12.22412 h -367.8951 v 266.47465 h 123.62309 c 0,33.36226 27.14453,60.516387 60.51638,60.516387 33.36226,0 60.50679,-27.154127 60.50679,-60.516387 h 123.24884 z" /><g
       id="g1201"><path
         id="path1061"
         style="fill:#0c1e42;fill-opacity:1;fill-rule:nonzero;stroke:none;stroke-width:6.85451"
         d="m 349.16309,-355.02864 v -26.0127 h 4.1836 v 6.813 h 2.96484 c 5.17172,0 8.01269,3.09885 8.01269,8.74073 v 1.60252 c 0,5.63235 -2.91774,8.85645 -8.01269,8.85645 z m 4.1836,-3.80857 h 2.68652 c 2.94606,0 4.14551,-1.37258 4.14551,-4.72118 v -2.20755 c 0,-3.24315 -1.27622,-4.69185 -4.14551,-4.69192 h -2.68652 z" /><path
         id="path1057"
         style="fill:#0c1e42;fill-opacity:1;fill-rule:nonzero;stroke:none;stroke-width:6.85451"
         d="m 370.40772,-355.02864 v -26.0127 h 4.19239 v 7.34033 h 2.42724 l 3.98291,-7.10888 0.13331,-0.23145 h 4.76953 l -4.86475,8.2134 c 3.08933,1.1034 4.52783,3.57015 4.52783,7.73438 v 1.39162 c 0,5.59388 -2.80202,8.6733 -7.89697,8.6733 z m 4.19239,-3.80857 h 2.68652 c 2.48544,0 4.14551,-0.7971 4.14551,-4.68315 v -2.28368 c 0,-2.81137 -1.3242,-4.11622 -4.14551,-4.11622 h -2.68652 z" /><path
         id="path1053"
         style="fill:#0c1e42;fill-opacity:1;fill-rule:nonzero;stroke:none;stroke-width:6.85451"
         d="m 398.96193,-354.70194 c -4.67272,0 -7.93506,-3.12892 -7.93506,-7.60987 v -11.44628 c 0,-4.45207 3.26234,-7.56157 7.93506,-7.56157 4.60554,0 7.94531,3.17662 7.94531,7.56157 v 11.44628 c 0,4.40415 -3.33977,7.60987 -7.94531,7.60987 z m 0,-3.81007 c 2.3319,0 3.71337,-1.37115 3.71337,-3.65483 v -11.69677 c 0,-2.68658 -1.90926,-3.64598 -3.71337,-3.64598 -2.34081,0 -3.74268,1.36238 -3.74268,3.64598 v 11.69677 c 0,3.38708 2.86941,3.65483 3.74268,3.65483 z" /><path
         id="path1037"
         style="fill:#0c1e42;fill-opacity:1;fill-rule:nonzero;stroke:none;stroke-width:6.85451"
         d="m 509.91066,-354.70194 c -4.67272,0 -7.93652,-3.12892 -7.93652,-7.60987 v -11.44628 c 0,-4.45207 3.2638,-7.56157 7.93652,-7.56157 4.59595,0 7.93359,3.17662 7.93359,7.56157 v 11.44628 c 0,4.40415 -3.33764,7.60987 -7.93359,7.60987 z m 0,-3.81007 c 2.32162,0 3.71191,-1.37115 3.71191,-3.65483 v -11.69677 c 0,-2.68658 -1.91808,-3.64598 -3.71191,-3.64598 -2.35109,0 -3.75293,1.36238 -3.75293,3.64598 v 11.69677 c 0,3.38708 2.87967,3.65483 3.75293,3.65483 z" /><path
         id="path1021"
         style="fill:#0c1e42;fill-opacity:1;fill-rule:nonzero;stroke:none;stroke-width:6.85451"
         d="m 523.85158,-300.66241 -11.64844,-43.90725 h 8.79931 l 2.08155,8.45362 h 10.45752 l 1.95849,-8.16652 0.0688,-0.2871 h 8.78907 l -11.37159,43.6377 -0.0762,0.26955 h -10e-4 z m 4.52783,-12.5508 3.64746,-15.91845 h -7.35059 z" /><path
         id="path1001"
         style="fill:#0c1e42;fill-opacity:1;fill-rule:nonzero;stroke:none;stroke-width:6.85451"
         d="m 540.24904,-246.36361 v -43.90718 h 13.29931 c 8.32823,0 13.51026,5.2389 13.51026,13.65376 v 16.59967 c 0,8.54918 -5.04769,13.65375 -13.51026,13.65375 z m 8.61621,-7.65675 h 3.74268 c 4.02016,0 5.8916,-2.0442 5.8916,-6.42915 v -15.05422 c 0,-6.3135 -2.97502,-7.16745 -5.8916,-7.16745 h -3.74268 z" /><path
         id="path1029"
         style="fill:#0c1e42;fill-opacity:1;fill-rule:nonzero;stroke:none;stroke-width:6.85451"
         d="m 480.68263,-300.65364 v -43.91602 h 12.83936 c 8.78884,0 13.43261,3.81847 13.43261,11.0244 v 2.5137 c 0,4.41375 -1.42962,7.12987 -4.62451,8.69385 2.8789,1.42005 4.22168,4.0962 4.22168,8.32762 v 2.01563 c 0,7.41697 -4.64377,11.34082 -13.43261,11.34082 z m 8.62647,-7.66552 h 3.53173 c 3.42521,0 5.16212,-0.729 5.16212,-4.7109 v -1.6509 c 0,-3.80925 -1.62236,-4.52933 -4.61573,-4.52933 h -4.07812 z m 0,-17.27198 h 4.21289 c 3.51157,0 4.8164,-1.2183 4.8164,-4.51905 v -2.20605 c 0,-3.9531 -1.64155,-4.65382 -5.08594,-4.65382 h -3.94335 z" /><path
         id="path1025"
         style="fill:#0c1e42;fill-opacity:1;fill-rule:nonzero;stroke:none;stroke-width:6.85451"
         d="m 427.54542,-300.10576 c -7.95465,0 -13.51026,-5.28713 -13.51025,-12.86723 v -19.34325 c 0,-7.54162 5.5556,-12.7998 13.51025,-12.7998 7.98345,0 13.56738,5.25818 13.56738,12.7998 v 19.34325 c 0,7.5801 -5.58393,12.86723 -13.56738,12.86723 z m 0,-7.66703 c 1.84249,0 4.94092,-0.63382 4.94092,-4.89405 v -19.8999 c 0,-4.41375 -3.45349,-4.89255 -4.94092,-4.89255 -1.83289,0 -4.89404,0.6324 -4.89404,4.89255 v 19.8999 c 0,4.26023 3.06115,4.89405 4.89404,4.89405 z" /><path
         id="path1013"
         style="fill:#0c1e42;fill-opacity:1;fill-rule:nonzero;stroke:none;stroke-width:6.85451"
         d="m 391.4297,-300.10576 c -7.95466,0 -13.5,-5.28713 -13.5,-12.86723 v -19.34325 c 0,-7.54162 5.54534,-12.7998 13.5,-12.7998 7.99235,0 13.57617,5.25818 13.57617,12.7998 v 19.34325 c 0,7.5801 -5.58382,12.86723 -13.57617,12.86723 z m 0,-7.66703 c 1.8514,0 4.95117,-0.63382 4.95117,-4.89405 v -19.8999 c 0,-4.41375 -3.46443,-4.89255 -4.95117,-4.89255 -1.8233,0 -4.88379,0.6324 -4.88379,4.89255 v 19.8999 c 0,4.26023 3.06049,4.89405 4.88379,4.89405 z" /><path
         style="fill:#0c1e42;fill-opacity:1;fill-rule:nonzero;stroke:none;stroke-width:6.85451"
         d="m 431.95913,-381.04073 h 13.36629 v 3.80925 h -9.22137 v 7.56093 h 6.74552 v 3.56935 h -6.74552 v 7.26352 h 9.22137 v 3.80925 h -13.36629 z"
         id="path1067" /><path
         style="fill:#0c1e42;fill-opacity:1;fill-rule:nonzero;stroke:none;stroke-width:6.85451"
         d="m 413.29705,-381.04073 h 4.14492 v 11.37018 h 6.23691 v 3.56935 h -6.23691 v 7.26352 h 8.75046 v 3.80925 h -12.89538 z"
         id="path1065" /><path
         style="fill:#0c1e42;fill-opacity:1;fill-rule:nonzero;stroke:none;stroke-width:6.85451"
         d="m 458.66223,-366.15878 c -2.53274,1.45851 -4.7207,2.70582 -4.7207,4.95108 0,1.75592 1.25712,2.80178 3.35802,2.80178 2.32231,0 3.59862,-1.31455 3.59862,-3.6941 v -0.44136 h 4.14492 v 0.44136 c 0,4.51925 -3.04134,7.43618 -7.74354,7.43618 -4.55756,0 -7.50294,-2.57146 -7.50294,-6.54386 0,-4.13546 3.38681,-6.13122 6.36167,-7.87754 2.54234,-1.48722 4.94141,-2.89774 4.94141,-5.37325 0,-2.85936 -2.54302,-3.16637 -3.637,-3.16637 -1.76503,0 -3.86663,0.6812 -3.86663,3.86677 v 0.45102 h -4.14492 v -0.45102 c 0,-4.69198 3.05095,-7.59925 7.96357,-7.59925 4.90371,0 7.82031,2.62904 7.82031,7.0332 0,4.39449 -3.49237,6.39992 -6.57279,8.16536"
         id="path1051" /><path
         style="fill:#0c1e42;fill-opacity:1;fill-rule:nonzero;stroke:none;stroke-width:6.85451"
         d="m 570.19534,-381.04073 h 13.35669 v 3.80925 h -9.21108 v 7.56093 h 6.73524 v 3.56935 h -6.73524 v 7.26352 h 9.21108 v 3.80925 h -13.35669 z"
         id="path1049" /><path
         style="fill:#0c1e42;fill-opacity:1;fill-rule:nonzero;stroke:none;stroke-width:6.85451"
         d="m 594.02024,-377.23148 v 22.20305 h -4.18331 v -26.00271 h 12.61709 v 3.79966 z"
         id="path1047" /><path
         style="fill:#0c1e42;fill-opacity:1;fill-rule:nonzero;stroke:none;stroke-width:6.85451"
         d="m 491.35275,-381.03114 h 4.14492 v 26.01231 h -4.14492 z"
         id="path1045" /><path
         style="fill:#0c1e42;fill-opacity:1;fill-rule:nonzero;stroke:none;stroke-width:6.85451"
         d="m 478.96528,-366.15878 c -2.53274,1.45851 -4.7207,2.70582 -4.7207,4.95108 0,1.75592 1.25712,2.80178 3.35871,2.80178 2.32162,0 3.59793,-1.31455 3.59793,-3.6941 v -0.44136 h 4.14492 v 0.44136 c 0,4.51925 -3.04134,7.43618 -7.74285,7.43618 -4.55756,0 -7.49403,-2.57146 -7.49403,-6.54386 0,-4.13546 3.37721,-6.13122 6.36167,-7.87754 2.53274,-1.48722 4.93181,-2.89774 4.93181,-5.37325 0,-2.85936 -2.54302,-3.16637 -3.63631,-3.16637 -1.76572,0 -3.86732,0.6812 -3.86732,3.86677 v 0.45102 h -4.14492 v -0.45102 c 0,-4.69198 3.05163,-7.59925 7.97385,-7.59925 4.89343,0 7.81003,2.62904 7.81003,7.0332 0,4.39449 -3.48278,6.39992 -6.57279,8.16536"
         id="path1043" /><path
         style="fill:#0c1e42;fill-opacity:1;fill-rule:nonzero;stroke:none;stroke-width:6.85451"
         d="m 558.95052,-371.44566 -7.94506,16.41723 h -3.78985 v -26.0123 h 4.1929 v 16.26369 l 7.82031,-16.01419 0.12406,-0.2495 h 3.77135 v 26.0123 h -4.17371 z"
         id="path1041" /><path
         style="fill:#0c1e42;fill-opacity:1;fill-rule:nonzero;stroke:none;stroke-width:6.85451"
         d="m 535.9701,-371.44566 -7.94506,16.41723 h -3.78026 v -26.0123 h 4.18331 v 16.26369 l 7.82031,-16.01419 0.12475,-0.2495 h 3.78026 v 26.0123 h -4.18331 z"
         id="path1035" /><path
         style="fill:#0c1e42;fill-opacity:1;fill-rule:nonzero;stroke:none;stroke-width:6.85451"
         d="m 455.66887,-344.56982 h 8.61611 v 36.18309 h 8.08901 v 7.72407 h -24.72695 v -7.72407 h 8.02183 z"
         id="path1019" /><path
         style="fill:#0c1e42;fill-opacity:1;fill-rule:nonzero;stroke:none;stroke-width:6.85451"
         d="m 551.32214,-300.66266 v -43.90716 h 21.55057 v 7.66649 h -12.85768 v 36.24067 z"
         id="path1017" /><path
         style="fill:#0c1e42;fill-opacity:1;fill-rule:nonzero;stroke:none;stroke-width:6.85451"
         d="m 580.82723,-300.66263 v -43.90716 h 21.56016 v 7.66649 h -12.86728 v 36.24067 z"
         id="path1011" /><path
         style="fill:#0c1e42;fill-opacity:1;fill-rule:nonzero;stroke:none;stroke-width:6.85451"
         d="m 357.71234,-308.3867 h 13.33681 v 7.73367 h -21.95293 v -43.84959 h 8.61612 v 18.54734 h 9.76767 v 7.0524 h -9.76767 z"
         id="path1009" /><path
         style="fill:#0c1e42;fill-opacity:1;fill-rule:nonzero;stroke:none;stroke-width:6.85451"
         d="m 601.96516,-282.60471 h -14.21077 v 10.94802 h 10.57376 v 7.0524 h -10.57376 v 10.52578 h 14.21077 v 7.71447 h -22.82688 v -43.90716 h 22.82688 z"
         id="path1007" /><path
         style="fill:#0c1e42;fill-opacity:1;fill-rule:nonzero;stroke:none;stroke-width:6.85451"
         d="m 370.6372,-282.60471 h -12.86728 v 36.24067 h -8.69289 v -43.90716 h 21.56017 z"
         id="path1005" /><path
         style="fill:#0c1e42;fill-opacity:1;fill-rule:nonzero;stroke:none;stroke-width:6.85451"
         d="m 506.91576,-282.60474 h -14.21007 v 10.94802 h 10.57376 v 7.0524 h -10.57376 v 10.52578 h 14.21007 v 7.71447 h -22.83647 v -43.90716 h 22.83647 z"
         id="path999" /><path
         style="fill:#0c1e42;fill-opacity:1;fill-rule:nonzero;stroke:none;stroke-width:6.85451"
         d="m 470.53136,-278.01825 v 31.65418 h -8.61612 v -31.96126 c 0,-4.36577 -3.41629,-4.83592 -4.88384,-4.83592 -1.85208,0 -4.95169,0.63329 -4.95169,4.83592 v 31.96126 h -8.61612 v -31.65418 c 0,-7.65689 5.45002,-12.7999 13.56781,-12.7999 8.07873,0 13.49996,5.14301 13.49996,12.7999"
         id="path997" /><path
         style="fill:#0c1e42;fill-opacity:1;fill-rule:nonzero;stroke:none;stroke-width:6.85451"
         d="m 431.18868,-278.01825 v 9.73902 h -13.86461 v -7.05239 h 5.2485 v -2.93613 c 0,-4.26021 -3.09961,-4.8935 -4.95101,-4.8935 -1.80411,0 -4.81667,0.63329 -4.81667,4.8935 v 19.35329 c 0,3.71329 1.55392,5.44042 4.88384,5.44042 3.24287,0 4.88384,-1.62157 4.88384,-4.82633 v -0.37418 h 8.62571 l -0.007,0.38378 c -0.13435,7.3882 -5.71871,12.5408 -13.56712,12.5408 -7.91627,0 -13.44306,-5.28688 -13.44306,-12.85741 v -19.41087 c 0,-7.53214 5.52679,-12.7999 13.44306,-12.7999 7.99235,0 13.56712,5.26776 13.56712,12.7999"
         id="path995" /><path
         style="fill:#0c1e42;fill-opacity:1;fill-rule:nonzero;stroke:none;stroke-width:6.85451"
         d="m 390.77451,-246.36407 h -8.6264 v -43.90716 h 8.6264 z"
         id="path863" /></g><path
       id="path865"
       style="fill:#59c25b;fill-opacity:1;fill-rule:nonzero;stroke:none;stroke-width:6.85451"
       d="m 521.43101,-158.2354 c 0,-25.22527 -20.44768,-45.66273 -45.66336,-45.66273 -25.22527,0 -45.67226,20.43746 -45.67226,45.66273 0,25.22596 20.44699,45.66336 45.67226,45.66336 25.21568,0 45.66336,-20.4374 45.66336,-45.66336" /><g
       id="g1215"><path
         style="fill:#ffffff;fill-opacity:1;fill-rule:nonzero;stroke:none;stroke-width:6.85451"
         d="m 431.16812,-35.704229 h 26.77987 v 32.4314148 h 38.13025 l 5.14294,18.3077032 h -43.27319 v 22.375852 h 56.66827 V 56.6486 h -83.44814 z"
         id="path1205" /><path
         style="fill:#ffffff;fill-opacity:1;fill-rule:nonzero;stroke:none;stroke-width:6.85451"
         d="m 362.1213,56.6486 h -26.78947 v -92.352829 h 71.33005 l 5.2581,19.238545 H 362.1213 Z"
         id="path867" /><path
         id="path1207"
         style="fill:#ffffff;fill-opacity:1;fill-rule:nonzero;stroke:none;stroke-width:9.13935"
         d="M 351.31836 125.60547 L 351.31836 248.74414 L 387.02539 248.74414 L 387.02539 212.82031 L 416.60352 212.82031 C 450.97933 212.82031 476.13086 197.13476 476.13086 168.49023 C 476.13086 141.31714 454.29246 125.60547 419.58398 125.60547 L 351.31836 125.60547 z M 387.02539 151.25781 L 416.8457 151.25781 C 430.90566 151.25781 439.19727 157.32024 439.19727 169.21875 C 439.19727 181.53858 432.01982 188.19141 418.59961 188.19141 L 387.02539 188.19141 L 387.02539 151.25781 z "
         transform="matrix(0.75000002,0,0,-0.75000002,267.1994,150.85338)" /></g></g></svg>
